<?plantuml 1.2026.2?><svg xmlns="http://www.w3.org/2000/svg" xmlns:xlink="http://www.w3.org/1999/xlink" contentStyleType="text/css" data-diagram-type="DESCRIPTION" height="1119px" preserveAspectRatio="none" style="width:1052px;height:1119px;background:#FFFFFF;" version="1.1" viewBox="0 0 1052 1119" width="1052px" zoomAndPan="magnify"><title>fedora-debugg Crash Triage Architecture</title><defs/><g><g class="title" data-source-line="2"><text fill="#000000" font-family="Monospace" font-size="14" font-weight="bold" lengthAdjust="spacing" textLength="285.739" x="368.8805" y="24.9659">fedora-debugg&#160;Crash&#160;Triage&#160;Architecture</text></g><!--cluster Main Incident Pipeline--><g class="cluster" data-qualified-name="Main Incident Pipeline" data-source-line="9" id="ent0003"><rect fill="#F8FAFC" height="818" rx="2.5" ry="2.5" style="stroke:#181818;stroke-width:1;" width="396" x="59.5" y="295.0679"/><text fill="#000000" font-family="Monospace" font-size="14" font-weight="bold" lengthAdjust="spacing" textLength="155.1474" x="179.9263" y="312.0339">Main&#160;Incident&#160;Pipeline</text></g><!--cluster Sidecar Audit Lanes--><g class="cluster" data-qualified-name="Sidecar Audit Lanes" data-source-line="20" id="ent0012"><rect fill="#FFF7ED" height="200.5" rx="2.5" ry="2.5" style="stroke:#181818;stroke-width:1;" width="561" x="463.5" y="295.0679"/><text fill="#000000" font-family="Monospace" font-size="14" font-weight="bold" lengthAdjust="spacing" textLength="136.195" x="675.9025" y="312.0339">Sidecar&#160;Audit&#160;Lanes</text></g><!--cluster Validation Surface--><g class="cluster" data-qualified-name="Validation Surface" data-source-line="26" id="ent0016"><rect fill="#F0FDF4" height="211" rx="2.5" ry="2.5" style="stroke:#181818;stroke-width:1;" width="298" x="685.5" y="44.0679"/><text fill="#000000" font-family="Monospace" font-size="14" font-weight="bold" lengthAdjust="spacing" textLength="126.213" x="771.3935" y="61.0339">Validation&#160;Surface</text></g><!--entity operator--><g class="entity" data-qualified-name="operator" data-source-line="7" id="ent0002"><ellipse cx="603.5138" cy="177.5679" fill="#F1F1F1" rx="8" ry="8" style="stroke:#181818;stroke-width:0.5;"/><path d="M603.5138,185.5679 L603.5138,212.5679 M590.5138,193.5679 L616.5138,193.5679 M603.5138,212.5679 L590.5138,227.5679 M603.5138,212.5679 L616.5138,227.5679" fill="none" style="stroke:#181818;stroke-width:0.5;"/><text fill="#000000" font-family="Monospace" font-size="14" lengthAdjust="spacing" textLength="112.0276" x="547.5" y="244.0339">Operator&#160;/&#160;Agent</text></g><!--entity docs--><g class="entity" data-qualified-name="docs" data-source-line="31" id="ent0019"><rect fill="#E2E8F0" height="77.2038" rx="2.5" ry="2.5" style="stroke:#181818;stroke-width:0.5;" width="305.1929" x="6" y="170.0679"/><text fill="#000000" font-family="Monospace" font-size="14" lengthAdjust="spacing" textLength="81.5917" x="16" y="195.0339">README.md</text><text fill="#000000" font-family="Monospace" font-size="14" lengthAdjust="spacing" textLength="140.8395" x="16" y="214.1018">docs/architecture.md</text><text fill="#000000" font-family="Monospace" font-size="14" lengthAdjust="spacing" textLength="285.1929" x="16" y="233.1697">docs/contributor-architecture-blueprint.md</text></g><!--entity workflow--><g class="entity" data-qualified-name="Main Incident Pipeline.workflow" data-source-line="10" id="ent0004"><rect fill="#DBEAFE" height="58.1358" rx="2.5" ry="2.5" style="stroke:#181818;stroke-width:0.5;" width="177.4434" x="257" y="325.0679"/><text fill="#000000" font-family="Monospace" font-size="14" lengthAdjust="spacing" textLength="157.4434" x="267" y="350.0339">scripts/run_workflow.sh</text><text fill="#000000" font-family="Monospace" font-size="14" lengthAdjust="spacing" textLength="112.2936" x="267" y="369.1018">stable&#160;entrypoint</text></g><!--entity collect--><g class="entity" data-qualified-name="Main Incident Pipeline.collect" data-source-line="11" id="ent0005"><rect fill="#E0F2FE" height="77.2038" rx="2.5" ry="2.5" style="stroke:#181818;stroke-width:0.5;" width="196.5113" x="234" y="420.0679"/><text fill="#000000" font-family="Monospace" font-size="14" lengthAdjust="spacing" textLength="176.5113" x="244" y="445.0339">scripts/collect_snapshot.sh</text><text fill="#000000" font-family="Monospace" font-size="14" lengthAdjust="spacing" textLength="119.2936" x="244" y="464.1018">capture&#160;host&#160;state</text><text fill="#000000" font-family="Monospace" font-size="14" lengthAdjust="spacing" textLength="112.1396" x="244" y="483.1697">--path-only&#160;reuse</text></g><!--entity bundle--><g class="entity" data-qualified-name="Main Incident Pipeline.bundle" data-source-line="12" id="ent0006"><path d="M126,534.0679 L167,534.0679 A3.75,3.75 0 0 1 169.5,536.5679 L176.5,555.0679 L445.4609,555.0679 A2.5,2.5 0 0 1 447.9609,557.5679 L447.9609,645.8396 A2.5,2.5 0 0 1 445.4609,648.3396 L126,648.3396 A2.5,2.5 0 0 1 123.5,645.8396 L123.5,536.5679 A2.5,2.5 0 0 1 126,534.0679" fill="#FEF3C7" style="stroke:#181818;stroke-width:0.5;"/><line style="stroke:#181818;stroke-width:0.5;" x1="123.5" x2="176.5" y1="555.0679" y2="555.0679"/><text fill="#000000" font-family="Monospace" font-size="14" lengthAdjust="spacing" textLength="294.4609" x="133.5" y="577.0339">artifacts/snapshot-&lt;timestamp&gt;/commands/</text><text fill="#000000" font-family="Monospace" font-size="14" lengthAdjust="spacing" textLength="209.0892" x="133.5" y="596.1018">journalctl,&#160;dmesg,&#160;rpm,&#160;session,</text><text fill="#000000" font-family="Monospace" font-size="14" lengthAdjust="spacing" textLength="204.3852" x="133.5" y="615.1697">GPU,&#160;VSCodium,&#160;reboot&#160;history</text><text fill="#000000" font-family="Monospace" font-size="14" lengthAdjust="spacing" textLength="158.1994" x="133.5" y="634.2376">+&#160;artifacts/latest&#160;pointer</text></g><!--entity analyze--><g class="entity" data-qualified-name="Main Incident Pipeline.analyze" data-source-line="13" id="ent0007"><rect fill="#FCE7F3" height="77.2038" rx="2.5" ry="2.5" style="stroke:#181818;stroke-width:0.5;" width="242.3331" x="116.5" y="685.0679"/><text fill="#000000" font-family="Monospace" font-size="14" lengthAdjust="spacing" textLength="184.0153" x="126.5" y="710.0339">scripts/analyze_snapshot.sh</text><text fill="#000000" font-family="Monospace" font-size="14" lengthAdjust="spacing" textLength="222.3331" x="126.5" y="729.1018">heuristics&#160;for&#160;boot,&#160;GPU/Wayland,</text><text fill="#000000" font-family="Monospace" font-size="14" lengthAdjust="spacing" textLength="188.1453" x="126.5" y="748.1697">VSCodium,&#160;Btrfs,&#160;coredumps</text></g><!--entity summary--><g class="entity" data-qualified-name="Main Incident Pipeline.summary" data-source-line="14" id="ent0008"><path d="M86.5,801.5679 L86.5,873.7717 A2.5,2.5 0 0 0 89,876.2717 L330.3791,876.2717 A2.5,2.5 0 0 0 332.8791,873.7717 L332.8791,809.0679 L322.8791,799.0679 L89,799.0679 A2.5,2.5 0 0 0 86.5,801.5679" fill="#DCFCE7" style="stroke:#181818;stroke-width:0.5;"/><path d="M322.8791,799.0679 L322.8791,806.5679 A2.5,2.5 0 0 0 325.3791,809.0679 L332.8791,809.0679" fill="#DCFCE7" style="stroke:#181818;stroke-width:0.5;"/><text fill="#000000" font-family="Monospace" font-size="14" lengthAdjust="spacing" textLength="144.4095" x="96.5" y="824.0339">analysis-summary.md</text><text fill="#000000" font-family="Monospace" font-size="14" lengthAdjust="spacing" textLength="226.3791" x="96.5" y="843.1018">collection&#160;health&#160;+&#160;resume&#160;context</text><text fill="#000000" font-family="Monospace" font-size="14" lengthAdjust="spacing" textLength="107.3656" x="96.5" y="862.1697">+&#160;triage&#160;findings</text></g><!--entity log_session--><g class="entity" data-qualified-name="Main Incident Pipeline.log_session" data-source-line="15" id="ent0009"><rect fill="#E9D5FF" height="58.1358" rx="2.5" ry="2.5" style="stroke:#181818;stroke-width:0.5;" width="163.1635" x="68" y="942.5679"/><text fill="#000000" font-family="Monospace" font-size="14" lengthAdjust="spacing" textLength="143.1635" x="78" y="967.5339">scripts/log_session.sh</text><text fill="#000000" font-family="Monospace" font-size="14" lengthAdjust="spacing" textLength="139.6495" x="78" y="986.6018">append&#160;local&#160;handoff</text></g><!--entity history--><g class="entity" data-qualified-name="Main Incident Pipeline.history" data-source-line="16" id="ent0010"><path d="M68,1049.5679 L68,1102.7038 A2.5,2.5 0 0 0 70.5,1105.2038 L264.5453,1105.2038 A2.5,2.5 0 0 0 267.0453,1102.7038 L267.0453,1057.0679 L257.0453,1047.0679 L70.5,1047.0679 A2.5,2.5 0 0 0 68,1049.5679" fill="#EDE9FE" style="stroke:#181818;stroke-width:0.5;"/><path d="M257.0453,1047.0679 L257.0453,1054.5679 A2.5,2.5 0 0 0 259.5453,1057.0679 L267.0453,1057.0679" fill="#EDE9FE" style="stroke:#181818;stroke-width:0.5;"/><text fill="#000000" font-family="Monospace" font-size="14" lengthAdjust="spacing" textLength="119.5595" x="78" y="1072.0339">CHATHISTORY.md</text><text fill="#000000" font-family="Monospace" font-size="14" lengthAdjust="spacing" textLength="179.0453" x="78" y="1091.1018">repo-local&#160;incident&#160;timeline</text></g><!--entity codium_helper--><g class="entity" data-qualified-name="Main Incident Pipeline.codium_helper" data-source-line="17" id="ent0011"><rect fill="#FDE68A" height="77.2038" rx="2.5" ry="2.5" style="stroke:#181818;stroke-width:0.5;" width="197.7013" x="249.5" y="933.0679"/><text fill="#000000" font-family="Monospace" font-size="14" lengthAdjust="spacing" textLength="162.5674" x="259.5" y="958.0339">scripts/vscodium_gpu.sh</text><text fill="#000000" font-family="Monospace" font-size="14" lengthAdjust="spacing" textLength="175.2233" x="259.5" y="977.1018">inspect&#160;or&#160;toggle&#160;argv.json</text><text fill="#000000" font-family="Monospace" font-size="14" lengthAdjust="spacing" textLength="177.7013" x="259.5" y="996.1697">with&#160;timestamped&#160;backups</text></g><!--entity storage_audit--><g class="entity" data-qualified-name="Sidecar Audit Lanes.storage_audit" data-source-line="21" id="ent0013"><rect fill="#FED7AA" height="58.1358" rx="2.5" ry="2.5" style="stroke:#181818;stroke-width:0.5;" width="263.3331" x="472" y="325.0679"/><text fill="#000000" font-family="Monospace" font-size="14" lengthAdjust="spacing" textLength="243.3331" x="482" y="350.0339">scripts/analyze_storage_hardware.sh</text><text fill="#000000" font-family="Monospace" font-size="14" lengthAdjust="spacing" textLength="166.5154" x="482" y="369.1018">hardware&#160;+&#160;storage&#160;audit</text></g><!--entity software_audit--><g class="entity" data-qualified-name="Sidecar Audit Lanes.software_audit" data-source-line="22" id="ent0014"><rect fill="#FED7AA" height="58.1358" rx="2.5" ry="2.5" style="stroke:#181818;stroke-width:0.5;" width="262.7171" x="753" y="325.0679"/><text fill="#000000" font-family="Monospace" font-size="14" lengthAdjust="spacing" textLength="242.7171" x="763" y="350.0339">scripts/analyze_installed_software.sh</text><text fill="#000000" font-family="Monospace" font-size="14" lengthAdjust="spacing" textLength="161.0134" x="763" y="369.1018">software&#160;inventory&#160;audit</text></g><!--entity audit_reports--><g class="entity" data-qualified-name="Sidecar Audit Lanes.audit_reports" data-source-line="23" id="ent0015"><path d="M538.5,432.0679 L538.5,485.2038 A2.5,2.5 0 0 0 541,487.7038 L826.3669,487.7038 A2.5,2.5 0 0 0 828.8669,485.2038 L828.8669,439.5679 L818.8669,429.5679 L541,429.5679 A2.5,2.5 0 0 0 538.5,432.0679" fill="#FFEDD5" style="stroke:#181818;stroke-width:0.5;"/><path d="M818.8669,429.5679 L818.8669,437.0679 A2.5,2.5 0 0 0 821.3669,439.5679 L828.8669,439.5679" fill="#FFEDD5" style="stroke:#181818;stroke-width:0.5;"/><text fill="#000000" font-family="Monospace" font-size="14" lengthAdjust="spacing" textLength="115.3736" x="548.5" y="454.5339">report&#160;directories</text><text fill="#000000" font-family="Monospace" font-size="14" lengthAdjust="spacing" textLength="270.3669" x="548.5" y="473.6018">markdown&#160;+&#160;captured&#160;command&#160;outputs</text></g><!--entity tests--><g class="entity" data-qualified-name="Validation Surface.tests" data-source-line="27" id="ent0017"><rect fill="#DCFCE7" height="77.2038" rx="2.5" ry="2.5" style="stroke:#181818;stroke-width:0.5;" width="282.485" x="693.5" y="170.0679"/><text fill="#000000" font-family="Monospace" font-size="14" lengthAdjust="spacing" textLength="203.1672" x="703.5" y="195.0339">tests/test_analyze_snapshot.sh</text><text fill="#000000" font-family="Monospace" font-size="14" lengthAdjust="spacing" textLength="262.485" x="703.5" y="214.1018">tests/test_analyze_storage_hardware.sh</text><text fill="#000000" font-family="Monospace" font-size="14" lengthAdjust="spacing" textLength="261.869" x="703.5" y="233.1697">tests/test_analyze_installed_software.sh</text></g><!--entity ci--><g class="entity" data-qualified-name="Validation Surface.ci" data-source-line="28" id="ent0018"><rect fill="#BBF7D0" height="58.1358" rx="2.5" ry="2.5" style="stroke:#181818;stroke-width:0.5;" width="203.1333" x="733" y="74.0679"/><text fill="#000000" font-family="Monospace" font-size="14" lengthAdjust="spacing" textLength="162.6234" x="743" y="99.0339">.github/workflows/ci.yml</text><text fill="#000000" font-family="Monospace" font-size="14" lengthAdjust="spacing" textLength="183.1333" x="743" y="118.1018">bash&#160;+&#160;shellcheck&#160;validation</text></g><g class="link" data-entity-1="ent0002" data-entity-2="ent0004" data-link-type="dependency" id="lnk20"><polygon fill="#181818" points="396.0014,324.979,405.8109,324.1,400.371,322.5486,401.9223,317.1086,396.0014,324.979" style="stroke:#181818;stroke-width:1;"/><path d="M547.1996,240.8823 C502.1258,265.9524 444.7137,297.8851 401.2449,322.0625" fill="none" style="stroke:#181818;stroke-width:1;"/></g><g class="link" data-entity-1="ent0004" data-entity-2="ent0005" data-link-type="dependency" id="lnk21"><polygon fill="#181818" points="337.2669,419.9827,342.3675,411.5575,337.896,415.0225,334.4311,410.551,337.2669,419.9827" style="stroke:#181818;stroke-width:1;"/><path d="M341.9477,383.0765 C340.5043,394.4571 339.5698,401.8253 338.0218,414.0304" fill="none" style="stroke:#181818;stroke-width:1;"/></g><g class="link" data-entity-1="ent0005" data-entity-2="ent0006" data-link-type="dependency" id="lnk22"><polygon fill="#181818" points="305.7093,533.955,312.5222,526.8428,307.4035,529.2508,304.9955,524.132,305.7093,533.955" style="stroke:#181818;stroke-width:1;"/><path d="M318.9057,497.3139 C314.7848,508.756 312.1995,515.9341 307.7423,528.3099" fill="none" style="stroke:#181818;stroke-width:1;"/></g><g class="link" data-entity-1="ent0006" data-entity-2="ent0007" data-link-type="dependency" id="lnk23"><polygon fill="#181818" points="251.3272,684.9751,258.1882,677.9092,253.0533,680.2825,250.68,675.1476,251.3272,684.9751" style="stroke:#181818;stroke-width:1;"/><path d="M264.8651,648.169 C260.2914,660.6038 257.6226,667.8596 253.3985,679.344" fill="none" style="stroke:#181818;stroke-width:1;"/></g><g class="link" data-entity-1="ent0007" data-entity-2="ent0008" data-link-type="dependency" id="lnk24"><polygon fill="#181818" points="218.9243,798.8706,224.9877,791.1094,220.137,794.0199,217.2266,789.1692,218.9243,798.8706" style="stroke:#181818;stroke-width:1;"/><path d="M228.0985,762.1739 C225.1435,773.994 223.3362,781.2233 220.3795,793.0497" fill="none" style="stroke:#181818;stroke-width:1;"/></g><g class="link" data-entity-1="ent0008" data-entity-2="ent0009" data-link-type="dependency" id="lnk25"><polygon fill="#181818" points="162.3083,942.3898,169.6739,935.8517,164.3773,937.8379,162.391,932.5413,162.3083,942.3898" style="stroke:#181818;stroke-width:1;"/><path d="M192.3064,876.3938 C182.7489,897.4204 173.5393,917.6814 164.7911,936.9276" fill="none" style="stroke:#181818;stroke-width:1;"/></g><g class="link" data-entity-1="ent0009" data-entity-2="ent0010" data-link-type="dependency" id="lnk26"><polygon fill="#181818" points="162.5248,1046.7371,164.9079,1037.1808,161.66,1041.8124,157.0284,1038.5646,162.5248,1046.7371" style="stroke:#181818;stroke-width:1;"/><path d="M154.4186,1000.5765 C156.9376,1014.9208 158.96,1026.4374 161.487,1040.8275" fill="none" style="stroke:#181818;stroke-width:1;"/></g><g class="link" data-entity-1="ent0008" data-entity-2="ent0011" data-link-type="dependency" id="lnk27"><polygon fill="#181818" points="308.6624,932.7365,304.8906,923.6385,305.0367,929.2934,299.3817,929.4395,308.6624,932.7365" style="stroke:#181818;stroke-width:1;"/><path d="M249.3318,876.3938 C267.9436,894.0683 285.6991,910.9296 304.3116,928.6048" fill="none" style="stroke:#181818;stroke-width:1;"/><text fill="#000000" font-family="Monospace" font-size="13" lengthAdjust="spacing" textLength="234.9362" x="289.5" y="909.9649">runtime/profile/Wayland-GPU&#160;findings</text></g><g class="link" data-entity-1="ent0002" data-entity-2="ent0013" data-link-type="dependency" id="lnk28"><polygon fill="#181818" points="603.5,324.6754,607.5,315.6754,603.5,319.6754,599.5,315.6754,603.5,324.6754" style="stroke:#181818;stroke-width:1;"/><path d="M603.5,248.4011 C603.5,272.4723 603.5,296.8541 603.5,318.6754" fill="none" style="stroke:#181818;stroke-width:1;"/></g><g class="link" data-entity-1="ent0002" data-entity-2="ent0014" data-link-type="dependency" id="lnk29"><polygon fill="#181818" points="823.028,324.924,816.5662,317.4913,818.4978,322.8082,813.1809,324.7397,823.028,324.924" style="stroke:#181818;stroke-width:1;"/><path d="M659.8673,243.1459 C667.0994,247.2479 674.4413,251.3127 681.5,255.0679 C728.3152,279.9735 777.0073,303.4304 817.5917,322.385" fill="none" style="stroke:#181818;stroke-width:1;"/></g><g class="link" data-entity-1="ent0013" data-entity-2="ent0015" data-link-type="dependency" id="lnk30"><polygon fill="#181818" points="661.3881,429.2371,659.0039,419.6811,658.3118,425.2955,652.6974,424.6033,661.3881,429.2371" style="stroke:#181818;stroke-width:1;"/><path d="M625.3604,383.0765 C636.5559,397.4208 646.4652,410.1171 657.6965,424.5072" fill="none" style="stroke:#181818;stroke-width:1;"/></g><g class="link" data-entity-1="ent0014" data-entity-2="ent0015" data-link-type="dependency" id="lnk31"><polygon fill="#181818" points="738.7066,429.4153,748.5415,428.8901,743.1609,427.1438,744.9071,421.7633,738.7066,429.4153" style="stroke:#181818;stroke-width:1;"/><path d="M829.5759,383.0765 C801.3307,397.4801 772.3373,412.2653 744.0517,426.6895" fill="none" style="stroke:#181818;stroke-width:1;"/></g><g class="link" data-entity-1="ent0017" data-entity-2="ent0004" data-link-type="dependency" id="lnk32"><polygon fill="#181818" points="393.278,324.9664,403.0994,324.231,397.6827,322.6002,399.3135,317.1835,393.278,324.9664" style="stroke:#181818;stroke-width:1;"/><path d="M701.0928,247.1122 C690.0931,249.9096 679.124,252.5993 668.5,255.0679 C656.9849,257.7436 470.6845,291.2386 459.5,295.0679 C436.9157,302.8004 418.4821,311.4267 398.5636,322.1269" fill="none" style="stroke:#181818;stroke-width:1;stroke-dasharray:7,7;"/></g><g class="link" data-entity-1="ent0017" data-entity-2="ent0007" data-link-type="dependency" id="lnk33"><polygon fill="#181818" points="358.7526,715.278,368.0012,718.6639,363.7413,714.9418,367.4634,710.682,358.7526,715.278" style="stroke:#181818;stroke-width:1;"/><path d="M963.4975,247.1281 C987.7747,259.1523 1010.9968,274.8039 1028.5,295.0679 C1045.9796,315.3046 1044.5,326.3273 1044.5,353.0679 C1044.5,353.0679 1044.5,353.0679 1044.5,592.0679 C1044.5,660.6794 590.0239,699.6947 364.7391,714.8746" fill="none" style="stroke:#181818;stroke-width:1;stroke-dasharray:7,7;"/></g><g class="link" data-entity-1="ent0017" data-entity-2="ent0013" data-link-type="dependency" id="lnk34"><polygon fill="#181818" points="681.3491,324.9103,691.1969,325.0525,685.947,322.9458,688.0537,317.6959,681.3491,324.9103" style="stroke:#181818;stroke-width:1;"/><path d="M800.5439,247.1979 C786.8553,260.9263 770.3313,275.8249 753.5,287.0679 C731.3795,301.844 710.9254,312.2734 686.8666,322.5529" fill="none" style="stroke:#181818;stroke-width:1;stroke-dasharray:7,7;"/></g><g class="link" data-entity-1="ent0017" data-entity-2="ent0014" data-link-type="dependency" id="lnk35"><polygon fill="#181818" points="874.6104,324.6848,875.4264,314.8698,872.9653,319.9632,867.8719,317.502,874.6104,324.6848" style="stroke:#181818;stroke-width:1;"/><path d="M847.6369,247.2709 C856.0856,271.5186 864.9133,296.854 872.6362,319.0189" fill="none" style="stroke:#181818;stroke-width:1;stroke-dasharray:7,7;"/></g><g class="link" data-entity-1="ent0018" data-entity-2="ent0017" data-link-type="dependency" id="lnk36"><polygon fill="#181818" points="834.5,169.8188,838.5,160.8188,834.5,164.8188,830.5,160.8188,834.5,169.8188" style="stroke:#181818;stroke-width:1;"/><path d="M834.5,132.0765 C834.5,143.6907 834.5,151.3418 834.5,163.8188" fill="none" style="stroke:#181818;stroke-width:1;"/></g><g class="link" data-entity-1="ent0019" data-entity-2="ent0004" data-link-type="dependency" id="lnk37"><polygon fill="#181818" points="308.8093,324.9122,304.1044,316.2598,304.8426,321.8683,299.2341,322.6064,308.8093,324.9122" style="stroke:#181818;stroke-width:1;"/><path d="M207.632,247.2709 C239.3384,271.6016 275.1459,299.0796 304.0493,321.2595" fill="none" style="stroke:#181818;stroke-width:1;stroke-dasharray:7,7;"/><text fill="#000000" font-family="Monospace" font-size="13" lengthAdjust="spacing" textLength="68.5751" x="260.5" y="281.9649">documents</text></g><g class="link" data-entity-1="ent0019" data-entity-2="ent0007" data-link-type="dependency" id="lnk38"><polygon fill="#181818" points="156.9322,684.9852,151.5672,676.7259,152.7403,682.2598,147.2065,683.4329,156.9322,684.9852" style="stroke:#181818;stroke-width:1;"/><path d="M131.7823,247.1997 C114.6117,275.0683 95.5,314.7041 95.5,353.0679 C95.5,353.0679 95.5,353.0679 95.5,592.0679 C95.5,618.3503 98.0423,627.5762 114.5,648.0679 C126.0686,662.4721 136.1963,671.5034 151.902,681.7147" fill="none" style="stroke:#181818;stroke-width:1;stroke-dasharray:7,7;"/><text fill="#000000" font-family="Monospace" font-size="13" lengthAdjust="spacing" textLength="50.466" x="97.5" y="463.9649">explains</text></g><?plantuml-src VLPHRzis47xNhxWbZxNie5tdj1WAA9Qq5cZMeiaw331Wq28biQ58WgJYUaF_UuyKPSkfkvSWkZjzT_VTToV_eWrfEWA2x5Nlm7RC4KaInvrWK3Eg34afs_PD0oj3R0ltXfE6GMQgbZjMkTwmn3vmgOaX7TYMKBNZie6Q23lrK5QJNhXIIVSdwHZSAgci9jKq1XyV4FpExJ6vGN0Y6y6IX5HE6RZue9aX_hy5P0sJxWA81HMDIHBVXejRmYMyanMd60GVkMQ2ItO1b-LrcPKh-2-18pfSsCfmxUp2z7ApK-QX5cetj-rQMaUs680WPgyLZmd74BZCRugiBCw3LKe8j6wi9DgsoWN0YcZF5xJA8jMEEBQMQQg9QrCbnHvnUij2alWwN1PNvVEGerQ2CYI16CTh9CGkHkZqTySxXd2TVeDvkuv8QXTh-KNrHX9HEJ43YW7D38pkPc2PjLp9sLh-yV6l6No-ModAUtGOjbNAGSijyhbVosTmJ2QmM2mwqC1Cg77RIuejNvP5-MArF4y3Qadi_sMdDBIiDvY3LnQxCk2JpW1hMVnDzWABnygEHTquKziP4c8OxJjjG-e8YxbNnR9yuUdXFcsmMsvJsoCDPZ_lAB8-S8ajGyk8S2qymr8nWY4gTlFL-LRTeEkQIuho7T9459pqoYSwtw9GpIPI6heZMZD9GQYA26Yn7LNN0MqIY7DzbRyioqFXgxVP_TjtT_SVFlqJQZPCgtI0uAEG_PG78IDO7182vSMhdudmqLQ1nKsZ-r0RbrPxMI7hJZK-bfZcSVx5AhcMEuxK7AJ4A6nneVh8U0HgcS1zGzxpuhVhBFassRexhB8Y1hAUSWVlYMJMhrnPBelyPojta0VsWY2RbXYw8uODCeaFEAxe1-AnXz74DuB5Qp1VPjd_9-5-eL4AT6DLxGvfnWSa-X5fzgHEqaJd3tc6iVan6GUK-xJAS6RN4XNpW3TGOjbntod4hGGyiRftKSCUSJCWM4zKaUSlJnZzJ0Id90ZthZUuX-66NPLv-UjJGlroseN_kpcxSkVyvpW_4tUMjj1123w_7FC6nTHl5-Enn8F8v_jEhENMVqHmegWaKRMiUe37Gvk3qZXStjoKo_pAap71_5Ha-MqHreEg2kSw-GGThNwb3T_ss5qwZKYtecVQuFd2s938X-F-F2-kowia6RyZaAPl3ZS-EHnxRus791cFixSDHp29jz1R8c_9UAEyBHwIP3metZOv1ydqD7XVtEwJ-DCDV0tukVBBkj16UJ6EnpF5GtguOa_QEbcQ9wuJeIUdwnNQcierUR8NFmOaWpZcymcPHzF8qT5oMjh4VbeNYiFd2lua372Q0Lb16nvsEVMEWtWDxAiM-Dl0VWS0?></g></svg>